<svg id="Capa_1" enable-background="new 0 0 512 512" height="512" viewBox="0 0 512 512" width="512" xmlns="http://www.w3.org/2000/svg"><g><path d="m356.092 246.328c1.465 1.464 3.385 2.197 5.304 2.197s3.839-.732 5.304-2.197c31.705-31.705 31.705-83.293 0-114.999-2.93-2.929-7.678-2.929-10.607 0s-2.929 7.678 0 10.606c12.526 12.525 19.424 29.179 19.424 46.893 0 17.713-6.897 34.367-19.424 46.893-2.93 2.929-2.93 7.678-.001 10.607zm-200.184-114.999c-2.93-2.929-7.678-2.929-10.607 0-31.705 31.705-31.705 83.293 0 114.999 1.465 1.464 3.385 2.197 5.304 2.197s3.839-.732 5.304-2.197c2.929-2.929 2.929-7.678 0-10.606-12.526-12.525-19.424-29.179-19.424-46.893s6.897-34.368 19.424-46.893c2.928-2.929 2.928-7.678-.001-10.607zm344.691 7.231-127.159-127.159c-7.352-7.352-17.127-11.401-27.526-11.401h-179.828c-10.398 0-20.174 4.049-27.526 11.401l-127.159 127.159c-7.352 7.353-11.401 17.128-11.401 27.525v51.205c0 4.142 3.357 7.5 7.5 7.5s7.5-3.358 7.5-7.5v-51.205c0-6.391 2.489-12.399 7.009-16.919l127.158-127.158c4.519-4.519 10.527-7.008 16.919-7.008h179.828c6.392 0 12.4 2.489 16.919 7.008l127.158 127.159c4.52 4.52 7.009 10.528 7.009 16.919v179.829c0 6.392-2.489 12.4-7.009 16.919l-127.158 127.157c-4.519 4.52-10.527 7.009-16.919 7.009h-179.828c-6.392 0-12.4-2.489-16.919-7.009l-127.158-127.158c-4.52-4.519-7.009-10.527-7.009-16.919v-98.624c0-4.142-3.357-7.5-7.5-7.5s-7.5 3.358-7.5 7.5v98.624c0 10.397 4.049 20.174 11.401 27.526l127.159 127.159c7.353 7.353 17.129 11.401 27.526 11.401h179.828c10.397 0 20.174-4.049 27.526-11.401l127.159-127.159c7.353-7.353 11.401-17.129 11.401-27.526v-179.829c0-10.397-4.049-20.172-11.401-27.525zm-300.284 11.084c-2.93-2.929-7.678-2.929-10.607 0-10.452 10.452-16.208 24.368-16.208 39.185s5.756 28.733 16.208 39.185c1.465 1.464 3.385 2.197 5.304 2.197s3.839-.732 5.304-2.197c2.929-2.929 2.929-7.678 0-10.606-7.619-7.619-11.815-17.769-11.815-28.579s4.196-20.959 11.815-28.578c2.928-2.93 2.928-7.678-.001-10.607zm111.37 78.369c1.465 1.464 3.385 2.197 5.304 2.197s3.839-.732 5.304-2.197c10.452-10.452 16.208-24.369 16.208-39.185s-5.756-28.732-16.208-39.185c-2.93-2.929-7.678-2.929-10.607 0s-2.929 7.678 0 10.606c7.619 7.619 11.815 17.768 11.815 28.578s-4.196 20.959-11.815 28.579c-2.93 2.929-2.93 7.678-.001 10.607zm152.415 118.183-36.766 36.766c-2.929 2.93-2.929 7.678 0 10.607 2.93 2.928 7.678 2.928 10.607 0l36.766-36.766c4.656-4.657 7.221-10.848 7.221-17.433v-166.741c0-6.585-2.564-12.775-7.221-17.432l-117.903-117.904c-4.656-4.656-10.848-7.221-17.433-7.221h-166.742c-6.585 0-12.776 2.564-17.433 7.221l-117.903 117.904c-4.656 4.657-7.221 10.847-7.221 17.432v166.742c0 6.585 2.564 12.775 7.221 17.433l117.903 117.903c4.657 4.656 10.848 7.221 17.433 7.221h166.742c6.585 0 12.775-2.564 17.433-7.221l59.917-59.917c2.929-2.93 2.929-7.678 0-10.607-2.93-2.928-7.678-2.928-10.607 0l-52.852 52.852-87.092-236.447c13.431-4.311 23.181-16.916 23.181-31.76 0-18.39-14.961-33.351-33.351-33.351s-33.351 14.961-33.351 33.351c0 14.844 9.75 27.449 23.181 31.76l-87.092 236.447-110.838-110.839c-1.824-1.823-2.828-4.247-2.828-6.825v-166.742c0-2.578 1.004-5.002 2.828-6.826l117.904-117.904c1.823-1.823 4.247-2.827 6.825-2.827h166.742c2.578 0 5.002 1.004 6.825 2.827l117.904 117.905c1.824 1.824 2.828 4.248 2.828 6.826v166.742c0 2.577-1.004 5.001-2.828 6.824zm-149.192 50.115-48.491-50.296 21.682-22.489zm-77.259-207.482c0-10.119 8.232-18.351 18.351-18.351s18.351 8.232 18.351 18.351-8.232 18.351-18.351 18.351-18.351-8.233-18.351-18.351zm18.351 47.55 26.34 71.51-26.34 27.32-26.34-27.32zm-32.099 87.147 21.682 22.489-48.491 50.296zm32.099 33.294 60.635 62.892h-121.27zm-73.053 77.892h146.106l11.82 32.089c-2.288.501-167.49.338-169.745 0z"/></g></svg>